<svg width="157" height="49" viewBox="0 0 157 49" fill="none" xmlns="http://www.w3.org/2000/svg">
<path fill-rule="evenodd" clip-rule="evenodd" d="M0 11.5C0 5.42487 4.92487 0.5 11 0.5H44C50.0751 0.5 55 5.42487 55 11.5C55 17.5751 50.0751 22.5 44 22.5H34.625C33.3887 22.5 32.3866 23.5022 32.3866 24.7384C32.3866 25.9746 33.3887 26.9768 34.625 26.9768H146.238C152.182 26.9768 157 31.7949 157 37.7384C157 43.6819 152.182 48.5 146.238 48.5H10.7616C4.81818 48.5 4.88281e-05 43.6819 4.88281e-05 37.7384C4.88281e-05 31.7949 4.81818 26.9768 10.7616 26.9768H26.2875C27.5237 26.9768 28.5259 25.9746 28.5259 24.7384C28.5259 23.5022 27.5237 22.5 26.2875 22.5H11C4.92487 22.5 0 17.5751 0 11.5ZM15.6424 15.4456C15.6424 15.2589 15.9148 15.1528 16.0811 15.2377C16.263 15.3306 16.4725 15.377 16.7097 15.377C16.9423 15.377 17.1484 15.321 17.328 15.209C17.5076 15.097 17.6584 14.9399 17.7804 14.7377C17.9048 14.5355 17.9992 14.2978 18.0637 14.0246C18.1281 13.7486 18.1604 13.4495 18.1604 13.127V13.041C18.1604 12.7022 18.1281 12.3948 18.0637 12.1188C18.0015 11.8402 17.9082 11.6011 17.7839 11.4016C17.6595 11.2022 17.5064 11.0492 17.3245 10.9426C17.1426 10.8333 16.9342 10.7787 16.6993 10.7787C16.4645 10.7787 16.2572 10.8279 16.0776 10.9262C16.0013 10.9669 15.9297 11.0157 15.863 11.0726C15.771 11.151 15.6027 11.1001 15.5949 10.9795C15.5905 10.9127 15.5351 10.8607 15.4681 10.8607H15.3031C15.1357 10.8607 15 10.9964 15 11.1637V16.6788C15 16.8562 15.1438 17 15.3212 17C15.4986 17 15.6424 16.8562 15.6424 16.6788V15.4456ZM15.6666 14.1967C15.6503 14.1634 15.6424 14.1267 15.6424 14.0896V12.3168C15.6424 12.1272 15.6764 11.9338 15.791 11.7828C15.8738 11.6708 15.974 11.582 16.0915 11.5164C16.2112 11.4508 16.3516 11.418 16.5128 11.418C16.6878 11.418 16.8386 11.4617 16.9653 11.5492C17.0919 11.6339 17.1956 11.7514 17.2762 11.9016C17.3591 12.0492 17.4201 12.2213 17.4592 12.418C17.4984 12.612 17.5179 12.8197 17.5179 13.041V13.127C17.5179 13.3484 17.4984 13.5574 17.4592 13.7541C17.4201 13.9481 17.3591 14.1202 17.2762 14.2705C17.1956 14.4208 17.0919 14.5396 16.9653 14.627C16.841 14.7117 16.6924 14.7541 16.5197 14.7541C16.3102 14.7541 16.1364 14.7035 15.9982 14.6025C15.86 14.4986 15.7495 14.3634 15.6666 14.1967ZM19.6145 11.379C19.6145 11.3827 19.6193 11.3842 19.6214 11.3811C19.7549 11.1899 19.9138 11.0423 20.098 10.9385C20.2845 10.832 20.4906 10.7787 20.7163 10.7787C20.9005 10.7787 21.0663 10.8087 21.2136 10.8688C21.361 10.9262 21.4865 11.0191 21.5901 11.1475C21.6961 11.276 21.7766 11.4426 21.8319 11.6475C21.8872 11.8497 21.9148 12.097 21.9148 12.3893V14.9738C21.9148 15.1513 21.771 15.2951 21.5936 15.2951C21.4162 15.2951 21.2724 15.1513 21.2724 14.9738V12.3811C21.2724 12.1489 21.2436 11.9631 21.1861 11.8238C21.1285 11.6817 21.0444 11.5792 20.9339 11.5164C20.8233 11.4508 20.6875 11.418 20.5263 11.418C20.3674 11.418 20.2224 11.4576 20.0911 11.5369C19.9622 11.6161 19.8505 11.7254 19.7561 11.8648C19.6464 12.0308 19.6145 12.233 19.6145 12.432V14.9756C19.6145 15.152 19.4714 15.2951 19.295 15.2951C19.1185 15.2951 18.9755 15.152 18.9755 14.9756V9.31949C18.9755 9.14304 19.1185 9 19.295 9C19.4714 9 19.6145 9.14304 19.6145 9.31949V11.379ZM22.7023 13.127V13.0328C22.7023 12.7131 22.7414 12.4167 22.8197 12.1434C22.8981 11.8675 23.0109 11.6284 23.1583 11.4262C23.3056 11.2213 23.4841 11.0628 23.6936 10.9508C23.9031 10.8361 24.138 10.7787 24.3982 10.7787C24.6607 10.7787 24.8967 10.8361 25.1062 10.9508C25.3181 11.0628 25.4977 11.2213 25.6451 11.4262C25.7947 11.6284 25.9087 11.8675 25.987 12.1434C26.0653 12.4167 26.1044 12.7131 26.1044 13.0328V13.127C26.1044 13.4467 26.0653 13.7432 25.987 14.0164C25.9087 14.2896 25.7947 14.5287 25.6451 14.7336C25.4977 14.9358 25.3193 15.0943 25.1097 15.209C24.9024 15.321 24.6676 15.377 24.4051 15.377C24.1426 15.377 23.9066 15.321 23.697 15.209C23.4875 15.0943 23.3079 14.9358 23.1583 14.7336C23.0109 14.5287 22.8981 14.2896 22.8197 14.0164C22.7414 13.7432 22.7023 13.4467 22.7023 13.127ZM23.3413 13.0328V13.127C23.3413 13.3484 23.3632 13.5574 23.4069 13.7541C23.4506 13.9481 23.5163 14.1202 23.6038 14.2705C23.6936 14.4208 23.8053 14.5396 23.9388 14.627C24.0723 14.7117 24.2278 14.7541 24.4051 14.7541C24.5801 14.7541 24.7332 14.7117 24.8645 14.627C24.998 14.5396 25.1086 14.4208 25.1961 14.2705C25.2835 14.1202 25.3492 13.9481 25.3929 13.7541C25.439 13.5574 25.462 13.3484 25.462 13.127V13.0328C25.462 12.8142 25.439 12.6079 25.3929 12.4139C25.3492 12.2172 25.2824 12.0437 25.1926 11.8934C25.1051 11.7404 24.9946 11.6202 24.861 11.5328C24.7298 11.4454 24.5755 11.4016 24.3982 11.4016C24.2232 11.4016 24.0689 11.4454 23.9354 11.5328C23.8041 11.6202 23.6936 11.7404 23.6038 11.8934C23.5163 12.0437 23.4506 12.2172 23.4069 12.4139C23.3632 12.6079 23.3413 12.8142 23.3413 13.0328ZM28.4704 11.1516C28.4704 11.3123 28.3401 11.4426 28.1794 11.4426H28.1216C27.9289 11.4426 27.7727 11.5988 27.7727 11.7915V14.1967C27.7727 14.347 27.7923 14.4604 27.8314 14.5369C27.8706 14.6134 27.9212 14.6639 27.9834 14.6885C28.0456 14.7131 28.1124 14.7254 28.1837 14.7254C28.2367 14.7254 28.2919 14.7199 28.3495 14.709C28.4177 14.6935 28.4846 14.7449 28.485 14.8149L28.4865 15.0875C28.4872 15.2123 28.4097 15.3242 28.2873 15.3484C28.2067 15.3675 28.1089 15.377 27.9938 15.377C27.8372 15.377 27.6933 15.3402 27.562 15.2664C27.4308 15.1926 27.326 15.0697 27.2477 14.8975C27.1717 14.7227 27.1337 14.4877 27.1337 14.1926V11.7846C27.1337 11.5957 26.9806 11.4426 26.7918 11.4426H26.7408C26.5801 11.4426 26.4498 11.3123 26.4498 11.1516C26.4498 10.9909 26.5801 10.8607 26.7408 10.8607H26.7918C26.9806 10.8607 27.1337 10.7076 27.1337 10.5187V10.1023C27.1337 9.92583 27.2768 9.78279 27.4532 9.78279C27.6297 9.78279 27.7727 9.92583 27.7727 10.1023V10.5118C27.7727 10.7045 27.9289 10.8607 28.1216 10.8607H28.1794C28.3401 10.8607 28.4704 10.9909 28.4704 11.1516ZM28.9816 13.127V13.0328C28.9816 12.7131 29.0207 12.4167 29.099 12.1434C29.1773 11.8675 29.2901 11.6284 29.4375 11.4262C29.5849 11.2213 29.7633 11.0628 29.9729 10.9508C30.1824 10.8361 30.4173 10.7787 30.6775 10.7787C30.94 10.7787 31.176 10.8361 31.3855 10.9508C31.5974 11.0628 31.777 11.2213 31.9243 11.4262C32.074 11.6284 32.188 11.8675 32.2663 12.1434C32.3446 12.4167 32.3837 12.7131 32.3837 13.0328V13.127C32.3837 13.4467 32.3446 13.7432 32.2663 14.0164C32.188 14.2896 32.074 14.5287 31.9243 14.7336C31.777 14.9358 31.5985 15.0943 31.389 15.209C31.1818 15.321 30.9469 15.377 30.6844 15.377C30.4219 15.377 30.1858 15.321 29.9763 15.209C29.7668 15.0943 29.5872 14.9358 29.4375 14.7336C29.2901 14.5287 29.1773 14.2896 29.099 14.0164C29.0207 13.7432 28.9816 13.4467 28.9816 13.127ZM29.6205 13.0328V13.127C29.6205 13.3484 29.6425 13.5574 29.6862 13.7541C29.7299 13.9481 29.7956 14.1202 29.8831 14.2705C29.9729 14.4208 30.0846 14.5396 30.2181 14.627C30.3517 14.7117 30.5071 14.7541 30.6844 14.7541C30.8594 14.7541 31.0125 14.7117 31.1437 14.627C31.2773 14.5396 31.3878 14.4208 31.4753 14.2705C31.5629 14.1202 31.6285 13.9481 31.6722 13.7541C31.7182 13.5574 31.7413 13.3484 31.7413 13.127V13.0328C31.7413 12.8142 31.7182 12.6079 31.6722 12.4139C31.6285 12.2172 31.5617 12.0437 31.4719 11.8934C31.3844 11.7404 31.2738 11.6202 31.1403 11.5328C31.009 11.4454 30.8548 11.4016 30.6775 11.4016C30.5024 11.4016 30.3482 11.4454 30.2147 11.5328C30.0834 11.6202 29.9729 11.7404 29.8831 11.8934C29.7956 12.0437 29.7299 12.2172 29.6862 12.4139C29.6425 12.6079 29.6205 12.8142 29.6205 13.0328ZM35.361 14.1188C35.361 14.0096 35.3403 13.9085 35.2989 13.8156C35.2597 13.7199 35.178 13.6339 35.0536 13.5574C34.9316 13.4781 34.7474 13.4098 34.501 13.3525C34.2938 13.3005 34.1061 13.2391 33.938 13.168C33.7722 13.097 33.6306 13.0109 33.5132 12.9098C33.398 12.8087 33.3094 12.6899 33.2472 12.5533C33.185 12.4167 33.154 12.2568 33.154 12.0738C33.154 11.8989 33.1862 11.7336 33.2506 11.5779C33.3174 11.4221 33.4107 11.2841 33.5305 11.1639C33.6525 11.0437 33.7987 10.9495 33.9691 10.8811C34.1395 10.8128 34.3294 10.7787 34.539 10.7787C34.8383 10.7787 35.0939 10.8415 35.3058 10.9672C35.5176 11.0929 35.6799 11.2609 35.7928 11.4713C35.8567 11.5889 35.9025 11.714 35.9302 11.8466C35.9663 12.0193 35.819 12.1639 35.6425 12.1639C35.4661 12.1639 35.3277 12.0148 35.2535 11.8547C35.2462 11.8388 35.2383 11.8231 35.2298 11.8074C35.1699 11.6899 35.0812 11.5929 34.9638 11.5164C34.8487 11.4399 34.7071 11.4016 34.539 11.4016C34.3617 11.4016 34.2178 11.4344 34.1073 11.5C33.999 11.5628 33.9196 11.6434 33.8689 11.7418C33.8205 11.8402 33.7964 11.944 33.7964 12.0533C33.7964 12.1352 33.8079 12.209 33.8309 12.2746C33.8563 12.3374 33.9 12.3962 33.9622 12.4508C34.0244 12.5027 34.1119 12.5519 34.2247 12.5984C34.3375 12.6448 34.4814 12.6913 34.6564 12.7377C34.9626 12.8197 35.2148 12.918 35.4128 13.0328C35.6109 13.1475 35.7583 13.2882 35.8549 13.4549C35.9517 13.6216 36 13.8238 36 14.0615C36 14.2555 35.9655 14.4331 35.8964 14.5943C35.8296 14.7555 35.7317 14.8948 35.6028 15.0123C35.4761 15.127 35.3242 15.2172 35.1469 15.2828C34.9719 15.3456 34.775 15.377 34.5563 15.377C34.227 15.377 33.9483 15.3074 33.7204 15.168C33.4924 15.0287 33.3197 14.8484 33.2023 14.627C33.1379 14.5057 33.0912 14.3807 33.0621 14.2519C33.0221 14.075 33.1732 13.9262 33.3545 13.9262C33.5302 13.9262 33.6654 14.0685 33.7228 14.2345C33.7473 14.3053 33.7799 14.3678 33.8205 14.4221C33.9127 14.5423 34.0255 14.6284 34.1591 14.6803C34.2926 14.7295 34.425 14.7541 34.5563 14.7541C34.7313 14.7541 34.8775 14.7268 34.9949 14.6721C35.1147 14.6175 35.2056 14.5423 35.2678 14.4467C35.3299 14.3511 35.361 14.2418 35.361 14.1188ZM60.5319 42.0647C60.9461 42.2794 61.5221 42.3855 62.2585 42.3855L62.2624 42.3828H66.5867C67.4474 42.3828 68.105 42.3391 68.5619 42.2543C69.0175 42.1694 69.332 42.074 69.5028 41.9667C69.6737 41.8606 69.7591 41.7798 69.7591 41.7268L69.121 40.6705C68.8932 40.7142 68.3043 40.754 67.3556 40.7911C66.4068 40.8282 65.0711 40.8467 63.3496 40.8467H62.7115C62.2456 40.8467 61.9207 40.7487 61.7395 40.5512C61.5583 40.3537 61.4677 40.0741 61.4677 39.7109V35.6288C61.4677 34.8707 61.8819 34.4917 62.7115 34.4917H63.505C65.1539 34.4917 66.4107 34.5102 67.2766 34.5473C68.1425 34.5858 68.6641 34.6202 68.8401 34.652L69.1508 33.324C69.1508 33.2392 68.9605 33.1557 68.5826 33.0762C68.2033 32.9953 67.6571 32.9556 66.9414 32.9556H62.2598C61.2528 32.9556 60.5267 33.1994 60.0815 33.6845C59.635 34.1696 59.4123 34.925 59.4123 35.9495V39.5187C59.4123 40.1496 59.4952 40.6771 59.6608 41.1039C59.8265 41.5319 60.1164 41.8514 60.5319 42.0647ZM27.571 34.2544V42.3854L27.5723 42.3867H29.6251V39.3291C29.9047 39.3504 30.3266 39.3769 30.8923 39.4087C31.4566 39.4405 32.0662 39.4564 32.7198 39.4564H34.3067C34.9085 39.4564 35.3965 39.3636 35.7693 39.1767C36.142 38.9912 36.4281 38.7553 36.6248 38.473C36.8215 38.1907 36.9561 37.8964 37.0286 37.5929C37.1011 37.2894 37.1373 37.0137 37.1373 36.7686V35.8236C37.1373 35.524 37.1115 35.2099 37.0597 34.8786C37.0079 34.5473 36.8914 34.2358 36.7102 33.9416C36.529 33.6487 36.2481 33.4114 35.8702 33.2299C35.491 33.0496 34.9706 32.9582 34.3067 32.9582H27.4157L27.571 34.2544ZM33.8549 37.919H29.6238V34.4929H33.8705C34.3261 34.4929 34.6432 34.6109 34.8192 34.8455C34.9952 35.0801 35.0833 35.3677 35.0833 35.7096V36.7182C35.0833 37.0495 34.9952 37.3318 34.8192 37.5664C34.6432 37.801 34.3222 37.919 33.8549 37.919ZM11.1747 42.2899C11.5074 42.3535 12.0251 42.3854 12.7305 42.3854H17.8935C18.8785 42.3854 19.5697 42.1388 19.9696 41.6485C20.3695 41.1581 20.5689 40.5126 20.5689 39.7121V39.4563C20.5689 38.742 20.4446 38.1999 20.1961 37.8314C19.9476 37.463 19.5904 37.2098 19.1231 37.0707C18.6572 36.9315 18.0915 36.8626 17.4276 36.8626H13.9743C13.5291 36.8626 13.2094 36.7751 13.0178 36.5988C12.8263 36.4226 12.7305 36.1588 12.7305 35.8063V35.5346C12.7395 35.2351 12.8289 34.9872 12.9945 34.7897C13.1602 34.5936 13.4812 34.4942 13.9588 34.4942L14.1296 34.5101C15.7372 34.5101 17.0186 34.5286 17.9725 34.5658C18.9264 34.6042 19.5386 34.6386 19.8078 34.6705L20.1184 33.3252C20.1184 33.2404 19.901 33.1595 19.4648 33.0853C19.0286 33.0098 18.4591 32.9727 17.7537 32.9727H13.5226C12.7965 32.9727 12.2257 33.0933 11.8115 33.3332C11.396 33.5744 11.1035 33.8911 10.9327 34.2861C10.7618 34.6811 10.6764 35.1131 10.6764 35.5823V35.8381C10.6764 36.746 10.9146 37.3994 11.3922 37.7996C11.8698 38.1999 12.6321 38.4 13.6792 38.4H17.2878C17.8055 38.4 18.1407 38.4795 18.2909 38.6399C18.441 38.8003 18.5161 39.0667 18.5161 39.4404V39.7611C18.5161 40.1561 18.4229 40.4358 18.2365 40.6014C18.0501 40.7671 17.733 40.8493 17.2878 40.8493H16.9927C15.3334 40.8493 14.0287 40.8307 13.08 40.7936C12.1312 40.7552 11.5371 40.7154 11.299 40.673L10.6764 42.0659C10.6764 42.1508 10.8434 42.2263 11.1747 42.2899ZM41.8034 42.3854L46.3607 32.9727H49.4257L53.9674 42.3854H51.5716L50.654 40.3523H45.0845L44.0737 42.3854H41.8034ZM45.6476 38.7844H50.0793L47.9489 34.4147H47.7935L45.6476 38.7844ZM75.9787 42.3854V32.9727H85.6537V34.5088H78.0315V36.7181H83.8494V38.3033H78.0315V40.848H85.7158L86.3384 42.2091C86.3384 42.2515 86.1986 42.2913 85.919 42.3297C85.6395 42.3668 85.1567 42.3854 84.472 42.3854H75.9787ZM95.6717 34.4942L95.6872 42.3854H97.74V34.4942H101.8V32.9582H91.627V34.4942H95.6717ZM108.022 42.3854V32.9727H110.075V42.3854H108.022ZM117.387 34.2545V42.3855L117.388 42.3869H119.441V36.4161H119.596L120.219 37.8091L122.178 41.4273H124.06L126.02 37.8091L126.627 36.4161H126.798V42.3869H128.85V32.9742H126.751L123.111 39.377L119.596 32.9742H117.231L117.387 34.2545ZM136.006 42.3854V32.9727H145.681V34.5088H138.059V36.7181H143.877V38.3033H138.059V40.848H145.743L146.366 42.2091C146.366 42.2515 146.226 42.2913 145.947 42.3297C145.667 42.3668 145.184 42.3854 144.5 42.3854H136.006ZM12.3109 11.0086V8.73251L7.09021 11.0722H7.07944V13.4069H7.09021L12.3109 15.7454V13.4668L9.63486 12.2353L12.3109 11.0099V11.0086ZM42.7262 13.3495V15.6244L47.9394 13.2994H47.9524V10.9622H47.9394L42.7262 8.62501V10.9011L45.4002 12.1253L42.7262 13.3495ZM37.4215 17.2628L40.4876 5.40814H42.3082L39.2422 17.2628H37.4215Z" fill="url(#paint0_linear_308_32)"/>
<defs>
<linearGradient id="paint0_linear_308_32" x1="12.5948" y1="0.5" x2="196.932" y2="56.5264" gradientUnits="userSpaceOnUse">
<stop offset="0.251308" stop-color="#996DFF"/>
<stop offset="0.623787" stop-color="#FF876E"/>
<stop offset="1" stop-color="#FFD072"/>
</linearGradient>
</defs>
</svg>
