<svg width="157" height="48" viewBox="0 0 157 48" fill="none" xmlns="http://www.w3.org/2000/svg">
<path fill-rule="evenodd" clip-rule="evenodd" d="M0 11C0 4.92487 4.92487 0 11 0H44C50.0751 0 55 4.92487 55 11C55 17.0751 50.0751 22 44 22H34.625C33.3887 22 32.3866 23.0022 32.3866 24.2384C32.3866 25.4746 33.3887 26.4768 34.625 26.4768H146.238C152.182 26.4768 157 31.2949 157 37.2384C157 43.1819 152.182 48 146.238 48H10.7616C4.81818 48 4.88281e-05 43.1819 4.88281e-05 37.2384C4.88281e-05 31.2949 4.81818 26.4768 10.7616 26.4768H26.2875C27.5237 26.4768 28.5259 25.4746 28.5259 24.2384C28.5259 23.0022 27.5237 22 26.2875 22H11C4.92487 22 0 17.0751 0 11ZM15.6424 14.9456C15.6424 14.7589 15.9148 14.6528 16.0811 14.7377C16.263 14.8306 16.4725 14.877 16.7097 14.877C16.9423 14.877 17.1484 14.821 17.328 14.709C17.5076 14.597 17.6584 14.4399 17.7804 14.2377C17.9048 14.0355 17.9992 13.7978 18.0637 13.5246C18.1281 13.2486 18.1604 12.9495 18.1604 12.627V12.541C18.1604 12.2022 18.1281 11.8948 18.0637 11.6188C18.0015 11.3402 17.9082 11.1011 17.7839 10.9016C17.6595 10.7022 17.5064 10.5492 17.3245 10.4426C17.1426 10.3333 16.9342 10.2787 16.6993 10.2787C16.4645 10.2787 16.2572 10.3279 16.0776 10.4262C16.0013 10.4669 15.9297 10.5157 15.863 10.5726C15.771 10.651 15.6027 10.6001 15.5949 10.4795C15.5905 10.4127 15.5351 10.3607 15.4681 10.3607H15.3031C15.1357 10.3607 15 10.4964 15 10.6637V16.1788C15 16.3562 15.1438 16.5 15.3212 16.5C15.4986 16.5 15.6424 16.3562 15.6424 16.1788V14.9456ZM15.6666 13.6967C15.6503 13.6634 15.6424 13.6267 15.6424 13.5896V11.8168C15.6424 11.6272 15.6764 11.4338 15.791 11.2828C15.8738 11.1708 15.974 11.082 16.0915 11.0164C16.2112 10.9508 16.3516 10.918 16.5128 10.918C16.6878 10.918 16.8386 10.9617 16.9653 11.0492C17.0919 11.1339 17.1956 11.2514 17.2762 11.4016C17.3591 11.5492 17.4201 11.7213 17.4592 11.918C17.4984 12.112 17.5179 12.3197 17.5179 12.541V12.627C17.5179 12.8484 17.4984 13.0574 17.4592 13.2541C17.4201 13.4481 17.3591 13.6202 17.2762 13.7705C17.1956 13.9208 17.0919 14.0396 16.9653 14.127C16.841 14.2117 16.6924 14.2541 16.5197 14.2541C16.3102 14.2541 16.1364 14.2035 15.9982 14.1025C15.86 13.9986 15.7495 13.8634 15.6666 13.6967ZM19.6145 10.879C19.6145 10.8827 19.6193 10.8842 19.6214 10.8811C19.7549 10.6899 19.9138 10.5423 20.098 10.4385C20.2845 10.332 20.4906 10.2787 20.7163 10.2787C20.9005 10.2787 21.0663 10.3087 21.2136 10.3688C21.361 10.4262 21.4865 10.5191 21.5901 10.6475C21.6961 10.776 21.7766 10.9426 21.8319 11.1475C21.8872 11.3497 21.9148 11.597 21.9148 11.8893V14.4738C21.9148 14.6513 21.771 14.7951 21.5936 14.7951C21.4162 14.7951 21.2724 14.6513 21.2724 14.4738V11.8811C21.2724 11.6489 21.2436 11.4631 21.1861 11.3238C21.1285 11.1817 21.0444 11.0792 20.9339 11.0164C20.8233 10.9508 20.6875 10.918 20.5263 10.918C20.3674 10.918 20.2224 10.9576 20.0911 11.0369C19.9622 11.1161 19.8505 11.2254 19.7561 11.3648C19.6464 11.5308 19.6145 11.733 19.6145 11.932V14.4756C19.6145 14.652 19.4714 14.7951 19.295 14.7951C19.1185 14.7951 18.9755 14.652 18.9755 14.4756V8.81949C18.9755 8.64304 19.1185 8.5 19.295 8.5C19.4714 8.5 19.6145 8.64304 19.6145 8.81949V10.879ZM22.7023 12.627V12.5328C22.7023 12.2131 22.7414 11.9167 22.8197 11.6434C22.8981 11.3675 23.0109 11.1284 23.1583 10.9262C23.3056 10.7213 23.4841 10.5628 23.6936 10.4508C23.9031 10.3361 24.138 10.2787 24.3982 10.2787C24.6607 10.2787 24.8967 10.3361 25.1062 10.4508C25.3181 10.5628 25.4977 10.7213 25.6451 10.9262C25.7947 11.1284 25.9087 11.3675 25.987 11.6434C26.0653 11.9167 26.1044 12.2131 26.1044 12.5328V12.627C26.1044 12.9467 26.0653 13.2432 25.987 13.5164C25.9087 13.7896 25.7947 14.0287 25.6451 14.2336C25.4977 14.4358 25.3193 14.5943 25.1097 14.709C24.9024 14.821 24.6676 14.877 24.4051 14.877C24.1426 14.877 23.9066 14.821 23.697 14.709C23.4875 14.5943 23.3079 14.4358 23.1583 14.2336C23.0109 14.0287 22.8981 13.7896 22.8197 13.5164C22.7414 13.2432 22.7023 12.9467 22.7023 12.627ZM23.3413 12.5328V12.627C23.3413 12.8484 23.3632 13.0574 23.4069 13.2541C23.4506 13.4481 23.5163 13.6202 23.6038 13.7705C23.6936 13.9208 23.8053 14.0396 23.9388 14.127C24.0723 14.2117 24.2278 14.2541 24.4051 14.2541C24.5801 14.2541 24.7332 14.2117 24.8645 14.127C24.998 14.0396 25.1086 13.9208 25.1961 13.7705C25.2835 13.6202 25.3492 13.4481 25.3929 13.2541C25.439 13.0574 25.462 12.8484 25.462 12.627V12.5328C25.462 12.3142 25.439 12.1079 25.3929 11.9139C25.3492 11.7172 25.2824 11.5437 25.1926 11.3934C25.1051 11.2404 24.9946 11.1202 24.861 11.0328C24.7298 10.9454 24.5755 10.9016 24.3982 10.9016C24.2232 10.9016 24.0689 10.9454 23.9354 11.0328C23.8041 11.1202 23.6936 11.2404 23.6038 11.3934C23.5163 11.5437 23.4506 11.7172 23.4069 11.9139C23.3632 12.1079 23.3413 12.3142 23.3413 12.5328ZM28.4704 10.6516C28.4704 10.8123 28.3401 10.9426 28.1794 10.9426H28.1216C27.9289 10.9426 27.7727 11.0988 27.7727 11.2915V13.6967C27.7727 13.847 27.7923 13.9604 27.8314 14.0369C27.8706 14.1134 27.9212 14.1639 27.9834 14.1885C28.0456 14.2131 28.1124 14.2254 28.1837 14.2254C28.2367 14.2254 28.2919 14.2199 28.3495 14.209C28.4177 14.1935 28.4846 14.2449 28.485 14.3149L28.4865 14.5875C28.4872 14.7123 28.4097 14.8242 28.2873 14.8484C28.2067 14.8675 28.1089 14.877 27.9938 14.877C27.8372 14.877 27.6933 14.8402 27.562 14.7664C27.4308 14.6926 27.326 14.5697 27.2477 14.3975C27.1717 14.2227 27.1337 13.9877 27.1337 13.6926V11.2846C27.1337 11.0957 26.9806 10.9426 26.7918 10.9426H26.7408C26.5801 10.9426 26.4498 10.8123 26.4498 10.6516C26.4498 10.4909 26.5801 10.3607 26.7408 10.3607H26.7918C26.9806 10.3607 27.1337 10.2076 27.1337 10.0187V9.60228C27.1337 9.42583 27.2768 9.28279 27.4532 9.28279C27.6297 9.28279 27.7727 9.42583 27.7727 9.60228V10.0118C27.7727 10.2045 27.9289 10.3607 28.1216 10.3607H28.1794C28.3401 10.3607 28.4704 10.4909 28.4704 10.6516ZM28.9816 12.627V12.5328C28.9816 12.2131 29.0207 11.9167 29.099 11.6434C29.1773 11.3675 29.2901 11.1284 29.4375 10.9262C29.5849 10.7213 29.7633 10.5628 29.9729 10.4508C30.1824 10.3361 30.4173 10.2787 30.6775 10.2787C30.94 10.2787 31.176 10.3361 31.3855 10.4508C31.5974 10.5628 31.777 10.7213 31.9243 10.9262C32.074 11.1284 32.188 11.3675 32.2663 11.6434C32.3446 11.9167 32.3837 12.2131 32.3837 12.5328V12.627C32.3837 12.9467 32.3446 13.2432 32.2663 13.5164C32.188 13.7896 32.074 14.0287 31.9243 14.2336C31.777 14.4358 31.5985 14.5943 31.389 14.709C31.1818 14.821 30.9469 14.877 30.6844 14.877C30.4219 14.877 30.1858 14.821 29.9763 14.709C29.7668 14.5943 29.5872 14.4358 29.4375 14.2336C29.2901 14.0287 29.1773 13.7896 29.099 13.5164C29.0207 13.2432 28.9816 12.9467 28.9816 12.627ZM29.6205 12.5328V12.627C29.6205 12.8484 29.6425 13.0574 29.6862 13.2541C29.7299 13.4481 29.7956 13.6202 29.8831 13.7705C29.9729 13.9208 30.0846 14.0396 30.2181 14.127C30.3517 14.2117 30.5071 14.2541 30.6844 14.2541C30.8594 14.2541 31.0125 14.2117 31.1437 14.127C31.2773 14.0396 31.3878 13.9208 31.4753 13.7705C31.5629 13.6202 31.6285 13.4481 31.6722 13.2541C31.7182 13.0574 31.7413 12.8484 31.7413 12.627V12.5328C31.7413 12.3142 31.7182 12.1079 31.6722 11.9139C31.6285 11.7172 31.5617 11.5437 31.4719 11.3934C31.3844 11.2404 31.2738 11.1202 31.1403 11.0328C31.009 10.9454 30.8548 10.9016 30.6775 10.9016C30.5024 10.9016 30.3482 10.9454 30.2147 11.0328C30.0834 11.1202 29.9729 11.2404 29.8831 11.3934C29.7956 11.5437 29.7299 11.7172 29.6862 11.9139C29.6425 12.1079 29.6205 12.3142 29.6205 12.5328ZM35.361 13.6188C35.361 13.5096 35.3403 13.4085 35.2989 13.3156C35.2597 13.2199 35.178 13.1339 35.0536 13.0574C34.9316 12.9781 34.7474 12.9098 34.501 12.8525C34.2938 12.8005 34.1061 12.7391 33.938 12.668C33.7722 12.597 33.6306 12.5109 33.5132 12.4098C33.398 12.3087 33.3094 12.1899 33.2472 12.0533C33.185 11.9167 33.154 11.7568 33.154 11.5738C33.154 11.3989 33.1862 11.2336 33.2506 11.0779C33.3174 10.9221 33.4107 10.7841 33.5305 10.6639C33.6525 10.5437 33.7987 10.4495 33.9691 10.3811C34.1395 10.3128 34.3294 10.2787 34.539 10.2787C34.8383 10.2787 35.0939 10.3415 35.3058 10.4672C35.5176 10.5929 35.6799 10.7609 35.7928 10.9713C35.8567 11.0889 35.9025 11.214 35.9302 11.3466C35.9663 11.5193 35.819 11.6639 35.6425 11.6639C35.4661 11.6639 35.3277 11.5148 35.2535 11.3547C35.2462 11.3388 35.2383 11.3231 35.2298 11.3074C35.1699 11.1899 35.0812 11.0929 34.9638 11.0164C34.8487 10.9399 34.7071 10.9016 34.539 10.9016C34.3617 10.9016 34.2178 10.9344 34.1073 11C33.999 11.0628 33.9196 11.1434 33.8689 11.2418C33.8205 11.3402 33.7964 11.444 33.7964 11.5533C33.7964 11.6352 33.8079 11.709 33.8309 11.7746C33.8563 11.8374 33.9 11.8962 33.9622 11.9508C34.0244 12.0027 34.1119 12.0519 34.2247 12.0984C34.3375 12.1448 34.4814 12.1913 34.6564 12.2377C34.9626 12.3197 35.2148 12.418 35.4128 12.5328C35.6109 12.6475 35.7583 12.7882 35.8549 12.9549C35.9517 13.1216 36 13.3238 36 13.5615C36 13.7555 35.9655 13.9331 35.8964 14.0943C35.8296 14.2555 35.7317 14.3948 35.6028 14.5123C35.4761 14.627 35.3242 14.7172 35.1469 14.7828C34.9719 14.8456 34.775 14.877 34.5563 14.877C34.227 14.877 33.9483 14.8074 33.7204 14.668C33.4924 14.5287 33.3197 14.3484 33.2023 14.127C33.1379 14.0057 33.0912 13.8807 33.0621 13.7519C33.0221 13.575 33.1732 13.4262 33.3545 13.4262C33.5302 13.4262 33.6654 13.5685 33.7228 13.7345C33.7473 13.8053 33.7799 13.8678 33.8205 13.9221C33.9127 14.0423 34.0255 14.1284 34.1591 14.1803C34.2926 14.2295 34.425 14.2541 34.5563 14.2541C34.7313 14.2541 34.8775 14.2268 34.9949 14.1721C35.1147 14.1175 35.2056 14.0423 35.2678 13.9467C35.3299 13.8511 35.361 13.7418 35.361 13.6188ZM60.5319 41.5647C60.9461 41.7794 61.5221 41.8855 62.2585 41.8855L62.2624 41.8828H66.5867C67.4474 41.8828 68.105 41.8391 68.5619 41.7543C69.0175 41.6694 69.332 41.574 69.5028 41.4667C69.6737 41.3606 69.7591 41.2798 69.7591 41.2268L69.121 40.1705C68.8932 40.2142 68.3043 40.254 67.3556 40.2911C66.4068 40.3282 65.0711 40.3467 63.3496 40.3467H62.7115C62.2456 40.3467 61.9207 40.2487 61.7395 40.0512C61.5583 39.8537 61.4677 39.5741 61.4677 39.2109V35.1288C61.4677 34.3707 61.8819 33.9917 62.7115 33.9917H63.505C65.1539 33.9917 66.4107 34.0102 67.2766 34.0473C68.1425 34.0858 68.6641 34.1202 68.8401 34.152L69.1508 32.824C69.1508 32.7392 68.9605 32.6557 68.5826 32.5762C68.2033 32.4953 67.6571 32.4556 66.9414 32.4556H62.2598C61.2528 32.4556 60.5267 32.6994 60.0815 33.1845C59.635 33.6696 59.4123 34.425 59.4123 35.4495V39.0187C59.4123 39.6496 59.4952 40.1771 59.6608 40.6039C59.8265 41.0319 60.1164 41.3514 60.5319 41.5647ZM27.571 33.7544V41.8854L27.5723 41.8867H29.6251V38.8291C29.9047 38.8504 30.3266 38.8769 30.8923 38.9087C31.4566 38.9405 32.0662 38.9564 32.7198 38.9564H34.3067C34.9085 38.9564 35.3965 38.8636 35.7693 38.6767C36.142 38.4912 36.4281 38.2553 36.6248 37.973C36.8215 37.6907 36.9561 37.3964 37.0286 37.0929C37.1011 36.7894 37.1373 36.5137 37.1373 36.2686V35.3236C37.1373 35.024 37.1115 34.7099 37.0597 34.3786C37.0079 34.0473 36.8914 33.7358 36.7102 33.4416C36.529 33.1487 36.2481 32.9114 35.8702 32.7299C35.491 32.5496 34.9706 32.4582 34.3067 32.4582H27.4157L27.571 33.7544ZM33.8549 37.419H29.6238V33.9929H33.8705C34.3261 33.9929 34.6432 34.1109 34.8192 34.3455C34.9952 34.5801 35.0833 34.8677 35.0833 35.2096V36.2182C35.0833 36.5495 34.9952 36.8318 34.8192 37.0664C34.6432 37.301 34.3222 37.419 33.8549 37.419ZM11.1747 41.7899C11.5074 41.8535 12.0251 41.8854 12.7305 41.8854H17.8935C18.8785 41.8854 19.5697 41.6388 19.9696 41.1485C20.3695 40.6581 20.5689 40.0126 20.5689 39.2121V38.9563C20.5689 38.242 20.4446 37.6999 20.1961 37.3314C19.9476 36.963 19.5904 36.7098 19.1231 36.5707C18.6572 36.4315 18.0915 36.3626 17.4276 36.3626H13.9743C13.5291 36.3626 13.2094 36.2751 13.0178 36.0988C12.8263 35.9226 12.7305 35.6588 12.7305 35.3063V35.0346C12.7395 34.7351 12.8289 34.4872 12.9945 34.2897C13.1602 34.0936 13.4812 33.9942 13.9588 33.9942L14.1296 34.0101C15.7372 34.0101 17.0186 34.0286 17.9725 34.0658C18.9264 34.1042 19.5386 34.1386 19.8078 34.1705L20.1184 32.8252C20.1184 32.7404 19.901 32.6595 19.4648 32.5853C19.0286 32.5098 18.4591 32.4727 17.7537 32.4727H13.5226C12.7965 32.4727 12.2257 32.5933 11.8115 32.8332C11.396 33.0744 11.1035 33.3911 10.9327 33.7861C10.7618 34.1811 10.6764 34.6131 10.6764 35.0823V35.3381C10.6764 36.246 10.9146 36.8994 11.3922 37.2996C11.8698 37.6999 12.6321 37.9 13.6792 37.9H17.2878C17.8055 37.9 18.1407 37.9795 18.2909 38.1399C18.441 38.3003 18.5161 38.5667 18.5161 38.9404V39.2611C18.5161 39.6561 18.4229 39.9358 18.2365 40.1014C18.0501 40.2671 17.733 40.3493 17.2878 40.3493H16.9927C15.3334 40.3493 14.0287 40.3307 13.08 40.2936C12.1312 40.2552 11.5371 40.2154 11.299 40.173L10.6764 41.5659C10.6764 41.6508 10.8434 41.7263 11.1747 41.7899ZM41.8034 41.8854L46.3607 32.4727H49.4257L53.9674 41.8854H51.5716L50.654 39.8523H45.0845L44.0737 41.8854H41.8034ZM45.6476 38.2844H50.0793L47.9489 33.9147H47.7935L45.6476 38.2844ZM75.9787 41.8854V32.4727H85.6537V34.0088H78.0315V36.2181H83.8494V37.8033H78.0315V40.348H85.7158L86.3384 41.7091C86.3384 41.7515 86.1986 41.7913 85.919 41.8297C85.6395 41.8668 85.1567 41.8854 84.472 41.8854H75.9787ZM95.6717 33.9942L95.6872 41.8854H97.74V33.9942H101.8V32.4582H91.627V33.9942H95.6717ZM108.022 41.8854V32.4727H110.075V41.8854H108.022ZM117.387 33.7545V41.8855L117.388 41.8869H119.441V35.9161H119.596L120.219 37.3091L122.178 40.9273H124.06L126.02 37.3091L126.627 35.9161H126.798V41.8869H128.85V32.4742H126.751L123.111 38.877L119.596 32.4742H117.231L117.387 33.7545ZM136.006 41.8854V32.4727H145.681V34.0088H138.059V36.2181H143.877V37.8033H138.059V40.348H145.743L146.366 41.7091C146.366 41.7515 146.226 41.7913 145.947 41.8297C145.667 41.8668 145.184 41.8854 144.5 41.8854H136.006ZM12.3109 10.5086V8.23251L7.09021 10.5722H7.07944V12.9069H7.09021L12.3109 15.2454V12.9668L9.63486 11.7353L12.3109 10.5099V10.5086ZM42.7262 12.8495V15.1244L47.9394 12.7994H47.9524V10.4622H47.9394L42.7262 8.12501V10.4011L45.4002 11.6253L42.7262 12.8495ZM37.4215 16.7628L40.4876 4.90814H42.3082L39.2422 16.7628H37.4215Z" fill="url(#paint0_linear_307_8)"/>
<defs>
<linearGradient id="paint0_linear_307_8" x1="12.5948" y1="2.47216e-07" x2="196.932" y2="56.0264" gradientUnits="userSpaceOnUse">
<stop offset="0.251308" stop-color="#996DFF"/>
<stop offset="0.623787" stop-color="#FF876E"/>
<stop offset="1" stop-color="#FFD072"/>
</linearGradient>
</defs>
</svg>
